<?xml version="1.0" encoding="utf-8"?>
<!-- Generator: Adobe Illustrator 16.0.0, SVG Export Plug-In . SVG Version: 6.00 Build 0)  -->
<!DOCTYPE svg PUBLIC "-//W3C//DTD SVG 1.1//EN" "http://www.w3.org/Graphics/SVG/1.1/DTD/svg11.dtd">
<svg version="1.1" id="Capa_1" xmlns="http://www.w3.org/2000/svg" xmlns:xlink="http://www.w3.org/1999/xlink" x="0px" y="0px"
	 width="200px" height="520px" viewBox="0 0 200 520" style="enable-background:new 0 0 200 520;" xml:space="preserve">
<style type="text/css">
<![CDATA[
	.st0{fill:none;stroke:#4B646E;stroke-width:1.2108;stroke-miterlimit:10;stroke-dasharray:4.1511,4.1511;}
	.st1{fill:none;stroke:#4B646E;stroke-width:1.2108;stroke-miterlimit:10;stroke-dasharray:6.8288,6.8288;}
	.st2{fill:none;stroke:#4B646E;stroke-width:1.2108;stroke-miterlimit:10;stroke-dasharray:7.9953,7.9953;}
	.st3{fill:none;stroke:#4B646E;stroke-width:1.2108;stroke-miterlimit:10;stroke-dasharray:7.9951,7.9951;}
	.st4{fill:#231F20;}
	.st5{fill:none;stroke:#4B646E;stroke-width:1.2108;stroke-miterlimit:10;stroke-dasharray:7.9639,7.9639;}
	.st6{fill:#FF5F3C;}
	.st7{fill:#FFFFFF;}
	.st8{fill:none;}
	.st9{fill:none;stroke:#4B646E;stroke-width:1.2108;stroke-miterlimit:10;}
	.st10{fill:none;stroke:#4B646E;stroke-width:1.2108;stroke-miterlimit:10;stroke-dasharray:6.8287,6.8287;}
]]>
</style>
<g>
	<g>
		<path class="st4" d="M48.1,41.2c0-0.8,0.3-1.3,1.2-1.3h1.5v-0.8c0-0.6-0.3-0.9-1-0.9c-0.4,0-0.8,0.1-1.2,0.2l-0.1-0.3
			c0.4-0.1,0.9-0.2,1.3-0.2c1,0,1.4,0.3,1.4,1.2v3.2h-0.3l0-0.4c-0.3,0.2-1,0.5-1.6,0.5C48.4,42.4,48.1,41.9,48.1,41.2z M50.8,41.6
			v-1.4h-1.5c-0.8,0-0.9,0.3-0.9,1c0,0.6,0.2,0.9,0.9,0.9C49.8,42.1,50.4,41.8,50.8,41.6z"/>
		<path class="st4" d="M52.8,38l0,0.4c0.5-0.2,1.2-0.5,1.8-0.5c0.7,0,1,0.4,1,0.9v3.5h-0.3v-3.4c0-0.4-0.2-0.6-0.7-0.6
			c-0.6,0-1.2,0.2-1.7,0.5v3.6h-0.3V38H52.8z"/>
		<path class="st4" d="M56.8,41.2v-2c0-0.8,0.4-1.3,1.3-1.3c0.5,0,1.1,0.1,1.4,0.2v-1.9l0.3,0v6.2h-0.3l0-0.4
			c-0.4,0.3-1,0.5-1.5,0.5C57.2,42.4,56.8,41.9,56.8,41.2z M59.6,41.5v-3.1c-0.3-0.1-0.9-0.2-1.4-0.2c-0.7,0-1,0.3-1,1v2
			c0,0.6,0.3,0.9,0.9,0.9C58.6,42.1,59.3,41.8,59.6,41.5z"/>
		<path class="st4" d="M63.7,36.3l-2.2,7.1h-0.3l2.2-7.1H63.7z"/>
		<path class="st4" d="M64.4,40.8v-1.3c0-0.9,0.5-1.6,1.6-1.6s1.6,0.7,1.6,1.6v1.3c0,0.9-0.5,1.6-1.6,1.6S64.4,41.7,64.4,40.8z
			 M67.4,40.8v-1.3c0-0.8-0.5-1.3-1.3-1.3s-1.3,0.5-1.3,1.3v1.3c0,0.8,0.5,1.3,1.3,1.3S67.4,41.6,67.4,40.8z"/>
		<path class="st4" d="M69.2,38l0,0.7c0.3-0.3,0.9-0.6,1.3-0.7l0.1,0.3c-0.4,0.2-1,0.5-1.4,0.8v3.3h-0.3V38H69.2z"/>
	</g>
	<g>
		<path class="st4" d="M122.9,42c0-0.8,0.3-1.3,1.2-1.3h1.5v-0.8c0-0.6-0.3-0.9-1-0.9c-0.4,0-0.8,0.1-1.2,0.2l-0.1-0.3
			c0.4-0.1,0.9-0.2,1.3-0.2c1,0,1.4,0.3,1.4,1.2v3.2h-0.3l0-0.4c-0.3,0.2-1,0.5-1.6,0.5C123.2,43.2,122.9,42.7,122.9,42z
			 M125.6,42.4V41h-1.5c-0.8,0-0.9,0.3-0.9,1c0,0.6,0.2,0.9,0.9,0.9C124.7,42.9,125.2,42.7,125.6,42.4z"/>
		<path class="st4" d="M127.6,38.8l0,0.4c0.5-0.2,1.2-0.5,1.8-0.5c0.7,0,1,0.4,1,0.9v3.5h-0.3v-3.4c0-0.4-0.2-0.6-0.7-0.6
			c-0.6,0-1.2,0.2-1.7,0.5v3.6h-0.3v-4.3H127.6z"/>
		<path class="st4" d="M131.7,42v-2c0-0.8,0.4-1.3,1.3-1.3c0.5,0,1.1,0.1,1.4,0.2V37l0.3,0v6.2h-0.3l0-0.4c-0.4,0.3-1,0.5-1.5,0.5
			C132,43.2,131.7,42.8,131.7,42z M134.4,42.3v-3.1c-0.3-0.1-0.9-0.2-1.4-0.2c-0.7,0-1,0.3-1,1v2c0,0.6,0.3,0.9,0.9,0.9
			C133.4,42.9,134.1,42.6,134.4,42.3z"/>
		<path class="st4" d="M138.6,37.1l-2.2,7.1H136l2.2-7.1H138.6z"/>
		<path class="st4" d="M139.3,41.6v-1.3c0-0.9,0.5-1.6,1.6-1.6s1.6,0.7,1.6,1.6v1.3c0,0.9-0.5,1.6-1.6,1.6S139.3,42.5,139.3,41.6z
			 M142.2,41.6v-1.3c0-0.8-0.5-1.3-1.3-1.3s-1.3,0.5-1.3,1.3v1.3c0,0.8,0.5,1.3,1.3,1.3S142.2,42.4,142.2,41.6z"/>
		<path class="st4" d="M144.1,38.8l0,0.7c0.3-0.3,0.9-0.6,1.3-0.7l0.1,0.3c-0.4,0.2-1,0.5-1.4,0.8v3.3h-0.3v-4.3H144.1z"/>
	</g>
	<g>
		<path class="st4" d="M86.3,187.8v-1.3c0-0.9,0.5-1.6,1.6-1.6s1.6,0.7,1.6,1.6v1.3c0,0.9-0.5,1.6-1.6,1.6S86.3,188.7,86.3,187.8z
			 M89.3,187.9v-1.3c0-0.8-0.5-1.3-1.3-1.3s-1.3,0.5-1.3,1.3v1.3c0,0.8,0.5,1.3,1.3,1.3S89.3,188.7,89.3,187.9z"/>
		<path class="st4" d="M91.1,185.1l0,0.7c0.3-0.3,0.9-0.6,1.3-0.7l0.1,0.3c-0.4,0.2-1,0.5-1.4,0.8v3.3h-0.3v-4.3H91.1z"/>
	</g>
	<g>
		<g>
			<g>
				<line class="st9" x1="163.6" y1="145.5" x2="160" y2="145.5"/>
				<line class="st1" x1="153.2" y1="145.5" x2="101.9" y2="145.5"/>
				<line class="st9" x1="98.5" y1="145.5" x2="94.9" y2="145.5"/>
			</g>
			<g>
				<line class="st9" x1="26.3" y1="275.4" x2="26.3" y2="271.8"/>
				<line class="st9" x1="26.3" y1="266.8" x2="26.3" y2="263.2"/>
			</g>
			<g>
				<line class="st9" x1="26.2" y1="94.5" x2="26.2" y2="98.2"/>
				<line class="st0" x1="26.2" y1="102.3" x2="26.2" y2="108.5"/>
				<polyline class="st9" points="26.2,110.6 26.2,114.2 29.8,114.2 				"/>
				<line class="st10" x1="36.6" y1="114.2" x2="87.8" y2="114.2"/>
				<polyline class="st9" points="91.3,114.2 94.9,114.2 94.9,110.6 				"/>
				<line class="st0" x1="94.9" y1="106.5" x2="94.9" y2="100.2"/>
				<line class="st9" x1="94.9" y1="98.2" x2="94.9" y2="94.5"/>
			</g>
			<g>
				<line class="st9" x1="173.8" y1="94.5" x2="173.8" y2="98.2"/>
				<line class="st0" x1="173.8" y1="102.3" x2="173.8" y2="108.5"/>
				<polyline class="st9" points="173.8,110.6 173.8,114.2 170.2,114.2 				"/>
				<line class="st5" x1="162.2" y1="114.2" x2="102.5" y2="114.2"/>
				<polyline class="st9" points="98.5,114.2 94.9,114.2 94.9,117.9 				"/>
				<line class="st2" x1="94.9" y1="125.9" x2="94.9" y2="137.9"/>
				<polyline class="st9" points="94.9,141.9 94.9,145.5 91.3,145.5 				"/>
				<line class="st10" x1="84.4" y1="145.5" x2="33.2" y2="145.5"/>
				<polyline class="st9" points="29.8,145.5 26.2,145.5 26.2,149.1 				"/>
				<line class="st9" x1="26.2" y1="154.1" x2="26.2" y2="157.8"/>
			</g>
			<g>
				<line class="st9" x1="163.6" y1="145.5" x2="163.6" y2="149.2"/>
				<line class="st9" x1="163.6" y1="154.2" x2="163.6" y2="157.8"/>
			</g>
			<g>
				<line class="st9" x1="163.7" y1="263.2" x2="163.7" y2="266.8"/>
				<polyline class="st9" points="163.7,271.9 163.7,275.5 160.1,275.5 				"/>
				<line class="st1" x1="153.2" y1="275.5" x2="102" y2="275.5"/>
				<line class="st9" x1="98.6" y1="275.5" x2="95" y2="275.5"/>
			</g>
			<g>
				<line class="st9" x1="26.3" y1="275.5" x2="29.9" y2="275.5"/>
				<line class="st10" x1="36.7" y1="275.5" x2="87.9" y2="275.5"/>
				<line class="st9" x1="91.3" y1="275.5" x2="95" y2="275.5"/>
			</g>
			<g>
				<line class="st9" x1="95" y1="275.4" x2="95" y2="279.1"/>
				<line class="st9" x1="95" y1="289.9" x2="95" y2="293.5"/>
			</g>
			<g>
				<line class="st9" x1="95" y1="368.3" x2="95" y2="371.9"/>
				<line class="st3" x1="95" y1="379.9" x2="95" y2="391.9"/>
				<line class="st9" x1="95" y1="395.9" x2="95" y2="399.6"/>
			</g>
		</g>
	</g>
	<path class="st6" d="M124.2,433.2c0.3-3.4-0.2-6.7-1.6-9.5c0,0,0,0,0,0c-1.5-3.2-3.9-6-7.3-8.3c-2.8-2-5.7-3.2-7.9-4
		c-0.3-1.3-1.1-2.3-2.1-2.4l-11.7-1.4c-1.1-0.1-2.2,0.7-2.7,2c-6.6,0.5-11.9,2.8-15.8,6.7c-0.9,0.9-1.7,1.9-2.4,2.9
		c0-0.1,0-0.2,0-0.3c0,0.1,0,0.3-0.1,0.4c-1.8,2.7-2.8,5.4-3.4,7.7c-6,0.4-10.7,5.4-10.7,11.5c0,5.2,3.4,9.5,8.1,11c0,0,0,0.1,0,0.1
		c-0.4,5.8-2.9,11.1-2,16.8l-0.9,0.3c-0.4,0.1-0.6,0.6-0.5,1l3,10.1c0.1,0.4,0.6,0.6,1,0.5l5.3-1.6c0.4-0.1,0.6-0.6,0.5-1l-0.1-0.5
		l7.8-9v18.1h2.7v7.3H92v-7.3h2.7v7.3h8.7v-7.3h2.9v-6.9l9.1-8.5l0,0l0.3-0.2l-5.6-7.3l7.7,0.9l0.8-6.4c0.6,0.1,1.1,0.1,1.7,0.1
		c6.4,0,11.5-5.2,11.5-11.5C131.9,439.1,128.7,434.8,124.2,433.2z M77.1,419.5C77.1,419.5,77.2,419.4,77.1,419.5
		c0.1,0,0.1,0.2,0,0.2C77.1,419.6,77.1,419.6,77.1,419.5z M76.6,420.1c0-0.1,0.1-0.1,0.1-0.2c0,0.2-0.1,0.3-0.2,0.5
		C76.6,420.2,76.6,420.2,76.6,420.1z M70.7,467.8l-0.7-2.5c-0.1-0.4-0.6-0.7-1-0.5l-3.8,1.1c-0.8-5.6,1.6-10.9,2-16.5
		c0.7,0.2,1.4,0.3,2.1,0.3l-0.8,6.2l10.9,1.3L70.7,467.8z M102.7,422.7c0,0.3-0.1,0.6-0.1,0.6C102.4,423.1,102.7,422.7,102.7,422.7z
		 M106.3,468.7V466l1.2,1.5L106.3,468.7z M117.9,425.7c0-0.1,0.1-0.6,0-0.4c-0.1,0.2,0,0.6-0.1,0.7c0.1-0.5,0.1-1,0.2-1.5
		c-0.1-0.5-0.1,0.9-0.3,1c0-0.3,0.2-1,0.1-1c0,0.1,0,0.4-0.1,0.3c0.1-0.6,0-0.5-0.1-0.1c0.1-0.5-0.1-0.4-0.1-0.7
		c-0.1,0.5,0,1.1-0.2,1.5c0-0.5,0.2-1.1,0.1-1.5c0,0.1,0,0.2-0.1,0.3c0-0.2,0-0.4-0.1-0.5c0,0.3-0.3,0.5-0.4,0.2
		c-0.1,0.2,0,0.5-0.1,0.6c-0.1-0.2,0-0.8-0.1-0.8c-0.1,0.4,0,1.1-0.2,1.4c0-0.4,0.2-0.9,0.1-1.2c-0.1,0.4,0-0.5-0.1-0.2
		c0,0.1,0,0.1,0,0.2c-0.1,0.5,0,1-0.2,1.3c-0.1-0.3,0.1-0.8,0.2-1.3c0-0.1,0-0.1,0-0.2c0,0,0,0,0,0c0-0.1,0-0.3,0-0.3
		c0.1,0.1-0.3,1.3-0.3,1.7c0,0,0,0.1,0,0.1c0,0,0-0.1,0-0.1c0-0.5,0.2-1.1,0.1-1.5c-0.1,0.5-0.1,1.2-0.3,1.6c0-0.2,0.2-0.8,0-0.7
		c-0.1,0.1,0,0.4-0.1,0.5c0-0.2,0.2-0.8,0-0.7c-0.1,0.2,0,0.6-0.1,0.7c0-0.3,0.2-0.8,0.1-1c0,0.3,0,0-0.1,0c0,0.1,0,0.2-0.1,0.2
		c0-0.3-0.2-0.4-0.3-0.6c-0.2,0.5-0.1,1.3-0.3,1.8c0-0.4,0.2-0.9,0.1-1.1c0,0.1,0,0.4-0.1,0.3c0-0.2,0.1-0.5,0-0.6
		c-0.2,0.2-0.2,0.6-0.3,0.8c0.1-0.4,0.2-1.4,0-0.9c-0.1,0.3,0,1-0.2,1.5c0-0.7,0.2-1.2,0.2-1.7c0-0.4-0.1,0.3-0.1,0.4
		c0,0.3,0,0.6-0.2,0.8c0-0.3,0.1-0.6,0.1-0.9c-0.1-0.4,0,0.6-0.2,0.6c0-0.2,0.2-0.6,0-0.7c0,0.1,0,0.2-0.1,0.2c0-0.3,0.1-0.6,0-0.9
		c0-0.8-0.1,0.8-0.3,1c0.1-0.2-0.1,0.1-0.2,0.3c0,0,0,0.1,0,0.1c0,0,0,0,0-0.1c0-0.3,0-0.4,0-0.7c-0.4,0.1-0.2-0.6-0.3-0.6
		c-0.1,0.7-0.1,1.6-0.3,2.2c0-0.7,0.3-1.6,0.1-2c-0.2,0.8-0.2,1.9-0.4,2.6c0.1-0.6,0.1-1.2,0.2-1.7c0.1-1.1,0,0.2-0.2,0.5
		c0-0.4,0.1-0.7,0.1-1.1c-0.2,0.1,0,0.8-0.2,0.9c0-0.4,0.1-0.7,0.1-1.1c-0.1-0.4,0,0.6-0.2,0.7c0-0.3,0.2-0.9,0-1.1
		c0,0.2-0.1,0.4-0.2,0.4c0-0.1,0.1-0.4,0-0.4c-0.2,0.3-0.1,0.9-0.2,1.4c-0.2-0.2-0.1,0.1-0.2,0.1c0-0.3,0.1-0.6,0.1-0.9
		c-0.2-0.2,0,0.6-0.2,0.7c0-0.3,0.2-1.7,0-0.9c-0.3,0.3-0.2,1.2-0.4,1.6c0.1-0.7,0.2-1.4,0-1.8c0.1,0.3-0.3,1.2-0.2,1.3
		c-0.1-0.2,0.3-1.5,0-0.9c-0.1,0.5,0,1.1-0.2,1.5c0-0.4,0.1-0.8,0.1-1.1c-0.1-0.4,0,0.7-0.2,0.7c0-0.6,0.2-1.3,0-1.8
		c0,0.4-0.1,0-0.2-0.1c-0.1,0.4,0,1-0.2,1.3c0.1-0.5,0-0.8,0.1-1.3c-0.3,0.1-0.1,0-0.3-0.2c-0.1,0.2-0.2,0.3-0.3,0.6
		c0-0.1,0.1-0.7,0-0.5c-0.2,1.1-0.2,2.3-0.5,3.2c0.1-0.7,0.2-1.4,0.3-2.1c0-0.5-0.1,0.4-0.1,0.6c-0.1,0.3,0,0.8-0.2,1
		c0.1-0.6,0.1-1.1,0.2-1.7c0-1-0.1,0.5-0.2,0.7c0-0.5,0.2-1.2,0.1-1.6c-0.2,0.4-0.2,1.2-0.4,1.6c0-0.3,0.1-0.5,0-0.7
		c0.1-1.4,0,0.2-0.2,0.6c0.1-0.6,0-1.3,0-1.5c-0.1,0.3,0,0.7-0.2,0.9c0-0.2,0.1-0.8,0-0.6c-0.1,0.2,0,0.6-0.1,0.7
		c0-0.3,0.3-1.4-0.1-1c0-0.2,0.1-0.4-0.1-0.5c-0.1,0.2,0,0.6-0.1,0.7c0-0.1,0-0.3-0.1-0.3c0,0.2-0.1,0.3-0.2,0.2
		c-0.1,0.4,0,1-0.2,1.3c0-0.5,0.3-1.2,0-1.5c0,0.1,0,0.4-0.1,0.3c-0.2-0.1-0.2-0.5-0.3-0.5c0-0.5-0.1,0.3-0.1,0.7
		c-0.1,0.5-0.1,1.1-0.2,1.3c0.2-0.3,0-0.6-0.1-0.5c0-0.3,0.2-0.7,0.2-1.2c-0.2,0.2,0,1-0.3,1.2c0-0.3,0.2-0.7,0-0.9
		c-0.1,0.7,0-0.4-0.1-0.2c-0.1,0.3,0,0.7-0.2,0.9c0-0.2,0.1-0.4,0.1-0.7c-0.2-0.1-0.2,0.3-0.3,0.1c0-0.1,0.1-0.4,0-0.5
		c0,0.3-0.1,0-0.3,0c-0.1,0.3,0,0.9-0.2,1.1c0-0.4,0.2-0.9,0-1.1c0,0.2-0.1,0.3-0.2,0.3c0-0.1,0.1-0.2,0-0.3c-0.1,0.3,0,0.8-0.2,1
		c0.1-0.4,0.1-0.7-0.1-0.8c-0.1,0.2,0,0.6-0.2,0.7c0-0.3,0.1-0.6-0.1-0.3c0-0.4,0.1-0.8,0.1-1.1c0-0.7-0.2-0.2-0.2,0.5
		c-0.3-0.1-0.2,1-0.4,1.2c0-0.2,0.1-0.8,0-0.6c-0.2,1.3,0.1-1-0.1-0.6c-0.1,0.4,0,1-0.2,1.3c0-0.3,0.3-2,0.1-1.5
		c-0.1,0.6-0.1,1.4-0.3,1.9c0-0.7,0.4-1.7,0.1-2.1c0,0.2-0.1,0.3-0.2,0.4c0-0.1,0-0.2-0.1-0.3c-0.1,0.6-0.1,1.3-0.3,1.8
		c0.1-0.6,0.1-1.1,0.2-1.7c0-0.4-0.1,0.3-0.1,0.5c-0.1,0.2,0,0.7-0.2,0.8c0-0.3,0.2-0.8,0.1-1.1c0,0.1,0,0.2-0.1,0.3
		c0-0.2,0.2-0.6,0-0.7c-0.2,0-0.1,0.7-0.3,1c0-0.1,0.1-0.7,0-0.5c-0.1,0.4,0,0.9-0.2,1.1c0.1-0.9,0.1-0.8-0.1-0.1
		c0.1-0.4,0.1-0.9,0.2-1.3c0-0.2-0.1,0.1-0.1,0.4c0,0,0,0-0.1,0.1c-0.1,0.4,0,0.9-0.2,1.2c0-0.4,0-0.2-0.1-0.1c0-0.2,0-0.3,0-0.3
		c0-0.2,0.1-0.5,0.1-0.7c0.1-0.2,0-0.7,0-0.3c-0.1,0.4,0,1.1-0.2,1.4c0-0.5-0.1-1,0.1-1.6c-0.2,0.1-0.1,0.5-0.2,0.8
		c-0.2,0,0,0.4-0.2,0.4c-0.2-0.2,0.2-1.1,0-1c-0.1,0.2,0,0.5-0.1,0.6c0-0.3,0.1-0.6,0.1-0.9c-0.2,0.1,0,0.7-0.2,0.8
		c0-0.2,0.2-0.8,0-0.7c-0.1,0.9-0.1,0.1-0.1,0c-0.1,0.2,0,0.6-0.1,0.7c0-0.1,0.1-0.4,0-0.4c-0.2,1,0-0.9-0.1-0.2
		c-0.1,0.3,0,0.8-0.2,0.9c0-0.2,0.1-1.2,0-0.6c-0.1,0.3,0,0.9-0.2,1.1c0-0.4,0.2-1,0.1-1.3c-0.1,0.4,0,1-0.2,1.3
		c0-0.5,0.3-1.6,0-1.7c-0.1-0.2,0,0.5-0.2,0.5c0-0.2,0.1-0.5,0-0.6c-0.2,0.2-0.1,0.8-0.3,1c0-0.7,0.1-1.5-0.1-0.3
		c-0.1,0.6-0.1,1.3-0.3,1.8c0.1-0.6,0.1-1.2,0.2-1.8c0-0.9-0.1,0.9-0.3,1c0.1-0.5,0.1-0.9,0.2-1.4c-0.2,0.2-0.1,1-0.3,1.2
		c0-0.4,0.1-0.7,0.1-1.1c0-0.7-0.1,0.4-0.2,0.5c0-0.2,0.2-0.6,0-0.7c-0.1,0.4,0,0-0.1-0.1c-0.1,0.3,0,0.9-0.2,1.1
		c0-0.4,0.1-0.8,0.1-1.1c-0.1-0.6-0.1,0.6-0.2,0.6c0-0.3,0.1-0.7,0.1-0.9c0-0.9-0.1,0.3-0.3,0.5c0-0.2,0.1-0.5,0-0.6
		c-0.2,0.2-0.1,0.7-0.2,0.9c0-0.2,0-0.4,0-0.6c0-0.2,0.2-0.8,0-0.7c0,0.3-0.1,0.6-0.1,0.9c-0.2,0.2-0.1,0.7-0.3,0.8
		c0-0.2,0.2-0.6,0-0.7c0,0.1,0,0.2-0.1,0.2c0-0.1,0.1-0.5,0-0.3c-0.1,0.4,0,1.1-0.2,1.4c0.1-0.6,0.1-1.3,0-1.6c-0.1,0.3,0,0.8-0.2,1
		c0-0.2,0.1-0.4,0.1-0.6c0.2-1.6-0.1,0.7-0.4,0.7c0-0.3,0.1-0.7,0.1-1c-0.2,0.1,0,0.8-0.2,0.9c0-0.3,0.1-0.6,0.1-0.9
		c-0.2,0.1-0.1,0.8-0.2,0.7c-0.1,0,0.2-0.9,0-0.9c-0.1,0.3,0,0.8-0.2,1c-0.2-0.3,0.2-0.9,0-1.1c0,0.1,0,0.2-0.1,0.3
		c0-0.1,0.1-0.6,0-0.4c-0.1,0.3,0,0.7-0.2,0.9c0-0.1,0.1-0.5,0-0.3c-0.1,0.2,0,0.5-0.1,0.5c0-0.4,0.1-0.8,0.1-1.2
		c-0.2-0.1,0,0.9-0.3,1c0-0.3,0.1-0.7,0.1-1c-0.2,0.1,0,0.8-0.2,0.9c0.1-0.4,0-0.9,0-0.9c-0.1,0.3,0.1,0.6-0.2,1
		c0.1-0.4,0-1-0.1-1.1c0,0.4-0.1,0.8-0.2,0.8c0,0,0.1-0.4,0-0.3c-0.1,0.1,0.1,0.3-0.1,0.4c0-0.4,0.2-1,0.1-1.3
		c-0.2,0.5-0.1,1.4-0.4,1.8c0-0.5,0.3-1.1,0-1.4c-0.2,0.2-0.1,0.7-0.3,1c-0.1-0.2,0.1-0.8-0.1-0.7c-0.1,0.4-0.1,0.7-0.3,1
		c0.1-0.3,0-0.4,0-0.5c0-0.8,0,0.3-0.2,0.8c0-0.4,0.2-1.2,0.1-1.3c-0.1,0.2,0,0.5-0.1,0.5c0-0.1,0.1-0.6,0-0.4
		c-0.1,0.2,0,0.7-0.2,0.8c0-0.5,0.2-1.1,0-1.4c-0.2,0.5-0.1,1.2-0.3,1.6c0-0.3,0.1-0.5,0.1-0.8c0.1-0.2,0.1-0.8,0-0.3
		c-0.1,0.5,0,1.2-0.2,1.5c0-0.6,0.3-1.4,0.1-1.7c-0.2,0.6-0.2,1.5-0.4,2.1c0-0.7,0.3-1.6,0.1-2.1c-0.1,0.3-0.1,0.6-0.3,0.8
		c0-0.1,0.1-0.7,0-0.5c0,0.1-0.1,0.8-0.2,0.8c0,0,0-0.1,0-0.2c0,0.1-0.1,0.2-0.2,0.3c0-0.3,0.1-0.7,0.1-1.1c0-0.1,0-0.3,0-0.5
		c0-0.1,0-0.1,0-0.2c-0.2,0.2-0.3,1.7-0.4,0.9c-0.1,0.2,0,0.5-0.1,0.5c0-0.2,0.2-0.9,0-0.8c-0.1,0.3,0,0.8-0.2,1
		c0.1-0.5,0.2-1.6,0-0.9c-0.1,0.3,0,1-0.2,1.5c0-0.3,0.1-0.7,0.1-1.1c0-0.2,0.1-1.1,0-0.6c-0.2,0.7-0.1,1.5-0.3,2.3
		c0-0.6,0.3-1.8,0.2-2.1c-0.3,1.9,0.2-2-0.1-0.4c-0.2,0.9,0,1.1-0.3,2c0-0.2,0.2-0.8,0-0.7c0,0.1,0,0.4-0.1,0.3
		c0-0.5,0.2-1.1,0.1-1.5c-0.1,0.2-0.1,0.5-0.2,0.6c0-0.3,0.2-0.7,0-0.9c0,0.1,0,0.4-0.1,0.3c0-0.1,0.1-0.6,0-0.4
		c-0.1,0.7-0.1,1.6-0.3,2.3c-0.1-0.5,0-1.2,0.1-1.9c0-0.2,0.1-0.5,0.1-0.7c-0.2,0.1-0.1,0.5-0.1,0.7c-0.2,0.9-0.2,2-0.4,2.8
		c0.1-0.8,0.3-1.7,0.2-2.4c-0.3,0.6-0.1,1.7-0.4,2.2c0-1.1,0.3-1.8,0.3-2.7c0-0.4-0.1,0.2-0.1,0.2c-0.1,0.7-0.1,1.5-0.3,2
		c0.1-0.5,0.1-1,0.2-1.5c0.1-1,0,0-0.2,0.3c0-0.3,0.1-0.6,0.1-0.9c-0.1-0.4,0,0.6-0.2,0.6c0-0.2,0.1-0.8,0-0.6
		c-0.1,0.2,0,0.5-0.1,0.5c0-0.3,0-0.6,0-0.8c0,0.1-0.2,0.3-0.2,0.2c0-0.3,0-0.5,0-0.7c-0.2,0.4-0.1,1.2-0.3,1.5c0-0.2,0.2-0.8,0-0.7
		c-0.1,0.2,0,0.6-0.1,0.7c0-0.3,0.2-0.8,0.1-1.1c-0.1,0.6,0-0.2,0-0.3c0.1-0.7,0,0.1-0.2,0.8c0.1-0.6,0.2-1.5,0-0.7
		c-0.1,0.4-0.1,1.2-0.3,1.6c0.1-0.4,0.2-2.2,0-0.7c-0.1,0.8-0.1,0.6-0.1,0c0.2-1.6-0.1,0.5-0.2,0.7c0-0.4,0.3-1.2,0-1.4
		c-0.2,0.2,0,0.9-0.3,1c0-0.3,0-0.6-0.2-0.3c0-0.3,0.2-1,0.1-1c0,0.1,0,0.4-0.1,0.3c0-0.1,0.1-0.2,0-0.3c-0.1,0.3,0,0.7-0.2,0.9
		c0-0.1,0.1-0.7,0-0.5c-0.1,0.2,0,0.6-0.1,0.7c0-0.2,0.2-0.9,0-0.8c-0.1,0.1,0,0.4-0.1,0.5c0-0.2,0.2-0.8,0-0.7
		c-0.1,0.2,0,0.5-0.1,0.5c0-0.2,0.2-1.2,0-0.7c-0.1,0.3,0,0.9-0.2,1.1c0.1-0.5,0.1-1.4,0-0.4c-0.1,0.5-0.1,1.2-0.3,1.5
		c0.1-0.6,0.2-1.3,0.2-1.9c0-0.1,0-0.2,0-0.3c-0.1,0-0.1,0.2-0.1,0.3c-0.2,0.3-0.1,0.9-0.3,1.1c0.1-0.7,0.1-1.1,0-1.5
		c-0.1,0.2-0.1,0.7-0.2,0.9c0-0.1,0.1-0.6,0-0.5c-0.1,0.1,0,0.4-0.1,0.4c0.1-0.3,0-0.5-0.1-0.6c0,0.4-0.1,0.7-0.2,0.2
		c-0.1,0.4,0,0.9-0.2,1.1c0-0.5,0.3-1.4,0.1-1.5c0,0.1,0,0.2-0.1,0.3c-0.2-0.2-0.2-0.2-0.3-0.4c-0.1,0.2,0,0.7-0.2,0.8
		c0-0.2,0.2-0.6-0.1-0.5c-0.1,0.6-0.2,1.2-0.3,1.6c0.1-0.5,0.1-1.1,0-1.5c-0.1,0.3,0,0.8-0.2,1.1c0.1-0.4,0.1-1.2,0.1-1.1
		c-0.1,0.4,0,0.9-0.2,1.4c0-0.5,0.3-1.4,0.1-1.6c-0.1,0.1,0,0.4-0.1,0.4c0-0.1,0.1-0.2,0-0.3c-0.1,0.4,0,1-0.2,1.3
		c0-0.5,0.2-1.2,0.1-1.7c-0.1,0.3-0.2,0.6-0.3,0.9c0-0.1,0.1-0.5,0-0.3c-0.1,0.3,0,0.8-0.2,0.9c0-0.4,0.2-1.1,0.1-1.4
		c-0.3,0.5,0,1.1-0.2,1.5c0,0,0,0-0.1,0.1c0,0,0.1-0.1,0.1-0.1c0,0-0.2,0-0.2,0.1c0,0,0,0.1,0,0.1c0,0,0-0.1,0-0.1
		c0-0.4,0.2-0.8,0.1-1.1c0,0.1,0,0.2-0.1,0.3c0-0.1,0.1-0.3,0-0.3c-0.1,0.2,0,0.7-0.2,0.8c-0.1-0.5,0.4-1,0.2-1.3
		c0.1,0.1-0.3,0.9-0.3,1.2c0-0.3,0.2-0.7,0-0.9c0,0.2-0.1,0.1-0.2,0c-0.1,0.3,0,0.8-0.2,1c0-0.5,0.2-1.1,0.1-1.5
		c-0.3,0.4-0.3,1-0.5,1.4c0-0.3,0.1-0.7,0.1-1c-0.1,0-0.3-0.2-0.4-0.4c-0.1,0.2,0,0.6-0.1,0.7c0.1-0.2-0.1-0.3-0.1-0.5
		c-0.1-0.5-0.1,1.1-0.3,1.2c0-0.5,0.2-1.1,0-1.4c-0.3,0.6-0.1,1.7-0.4,2.4c0-0.4,0.2-1.4,0.1-1.5c-0.1,0.1,0,0.4-0.1,0.5
		c0-0.3,0.1-0.7,0.1-1c-0.1-0.4,0,0.6-0.2,0.6c0-0.3,0.1-0.7,0.1-1c-0.1-0.4,0,0.6-0.2,0.6c0-0.2,0.2-0.9,0-0.8
		c-0.1,1-0.1,0.2-0.3,0.4c0-0.2,0.1-0.5,0-0.5c-0.3,0.3-0.2,1.3-0.4,1.8c0.1-0.5,0.1-0.9,0.2-1.4c0-0.7-0.1,0.7-0.2,0.8
		c0-0.4,0.2-1,0-1.3c-0.1,0.2,0,0.6-0.1,0.7c-0.2-0.1,0.1-0.8-0.1-0.7c-0.1,0.4,0,1-0.2,1.3c0-0.4,0.1-0.8,0.1-1.1
		c-0.2-0.1,0,0.8-0.2,0.9c0.1-0.5-0.1-0.7-0.2-1c-0.1,0.1-0.2,0.4-0.3,0.2c-0.1,0.3,0,0.9-0.2,1.1c0.1-0.4,0.1-1.2,0-0.6
		c-0.1,0.2,0,0.8-0.2,1.1c0-0.3,0.2-1,0.1-1c-0.1,0.2,0,0.5-0.1,0.6c0-0.2,0.2-0.9,0-0.9c-0.1,0.1,0,0.4-0.1,0.5
		c0-0.2,0.2-0.9,0-0.8c-0.1,0.2,0,0.5-0.1,0.5c0-0.3,0.1-0.8,0-0.8c0,0.1,0,0.4-0.1,0.3c-0.1-0.1,0-0.6-0.1-0.7
		c-0.1,0.3,0,0.8-0.2,0.9c0-0.1,0.1-0.6,0-0.4c0,0.4-0.2,0.9-0.2,0.9c-0.1-0.1,0.2-0.6,0-0.5c-0.1,0.5-0.1,1.2-0.3,1.7
		c0-0.3,0.1-1,0.2-1.5c0.1-0.6,0.1-1.2,0-0.3c-0.1,0.3,0,0.8-0.2,0.9c0-0.3,0.2-1,0.1-1c-0.2,1,0,0,0-0.2c0-0.3,0-0.1-0.1,0.3
		c-0.1,0.4,0,0.8-0.2,1.4c0-0.3,0.1-0.5,0.1-0.8c0-0.2,0.1-0.9,0-0.5c-0.1,0.5-0.1,1.2-0.3,1.6c0.1-0.5,0.1-1,0.2-1.5
		c0.1-1.1,0,0.1-0.2,0.4c0-0.3,0.1-0.7,0.1-1c0,0,0.1-0.8,0-0.5c-0.1,0.2,0.1,0.6-0.1,0.8c0.1-0.2,0.1-1.1,0-0.4
		c-0.1,0.5,0,0.5-0.2,1.1c0.1-1.5,0-0.1-0.2,0.5c0-0.4,0.1-0.8,0.2-1.3c-0.2-0.1-0.1,0.9-0.3,1c0.1-0.8,0.1-2-0.2-0.6
		c0-0.1,0.1-0.7,0-0.5c-0.1,0.2,0,0.6-0.2,0.7c0-0.1,0.1-0.5,0.1-0.7c0.2-0.2,0.4-0.4,0.5-0.6c3.2-3.2,7.6-5,13.1-5.5
		c0.4,0.8,1,1.4,1.8,1.5l11.7,1.4c0.8,0.1,1.6-0.3,2.2-1.1c1.8,0.7,4.2,1.8,6.5,3.4c2.2,1.5,3.9,3.2,5.1,5.1
		C118.1,424.3,118,425.1,117.9,425.7z M118.3,425c0-0.3,0.1-0.8,0.1-1.1c0,0,0.1,0.1,0.1,0.1C118.5,424.4,118.5,424.8,118.3,425z
		 M118.6,425.2c0.1-0.3,0.1-0.6,0.1-0.9c0,0.1,0.1,0.1,0.1,0.2C118.7,424.8,118.7,425,118.6,425.2z M118.9,425.1c0-0.1,0-0.2,0-0.4
		c0,0,0,0.1,0.1,0.1C119,425,118.9,425.1,118.9,425.1z M93.6,421.9c0-0.1,0-0.3-0.1-0.4c0-0.2,0-0.4,0-0.5c0-0.1,0.1-0.3,0.1-0.4
		C93.8,420.3,93.7,421.3,93.6,421.9z M93.6,421.9c0,0.1,0,0.2,0,0.3C93.5,422.1,93.6,422,93.6,421.9z M134.1,400.5
		c-4.3,0-7.8,3.5-7.8,7.8s3.5,7.9,7.8,7.9c4.3,0,7.8-3.5,7.8-7.9S138.4,400.5,134.1,400.5z M137.9,410.8c-0.2,0.7-0.9,1.1-1.7,1.1
		c-0.8,0-1.4-0.4-1.3-1.2c0.2-1.1,1.6-1.7,2.7-1.1c0-1.4,0-2.7,0.1-4c-1.5,0.3-2.9,0.7-4.4,1c-0.1,1.4,0,3.2-0.1,4.6
		c-0.1,0.9-0.6,1.6-1.4,1.8c-0.8,0.2-1.6-0.2-1.6-1c0-1.3,1.7-2,2.6-1.2c0-1.8,0.1-3.7,0.1-5.4c1.7-0.4,3.4-0.3,5.1-1.3h0
		c0,2,0,3.3,0,4.9C138,409.4,138,410.3,137.9,410.8z M153.7,391.7c-4.3,0-7.8,3.5-7.8,7.9c0,4.3,3.5,7.8,7.8,7.8
		c4.3,0,7.8-3.5,7.8-7.8C161.5,395.2,158,391.7,153.7,391.7z M157.5,401.9c-0.2,0.7-0.9,1.1-1.7,1.1c-0.8,0-1.4-0.4-1.3-1.2
		c0.2-1.1,1.6-1.7,2.7-1.1c0-1.4,0-2.7,0.1-4c-1.5,0.3-2.9,0.7-4.4,1c-0.1,1.4,0,3.2-0.1,4.6c-0.1,0.9-0.6,1.6-1.4,1.8
		c-0.8,0.2-1.6-0.2-1.6-1c0-1.3,1.7-2,2.6-1.2c0-1.8,0.1-3.7,0.1-5.5c1.7-0.4,3.4-0.4,5.1-1.4h0c0,2,0,3.4,0,4.9
		C157.6,400.5,157.7,401.5,157.5,401.9z M138.1,366.2H39.4c-9.2,0-16.7-7.5-16.7-16.7c0-7.8,5.4-14.4,12.7-16.2
		c3.2-8.1,10.7-13.9,19.5-14.9c0.9-18.8,16.5-33.8,35.5-33.8c13.9,0,26.4,8.2,32.2,20.4c4.7-2.6,10.1-4,15.6-4
		c18,0,32.6,14.6,32.6,32.6S156.1,366.2,138.1,366.2L138.1,366.2z M39.1,166.8c0-1.4-1.2-2.6-2.6-2.6H15.8c-1.4,0-2.6,1.2-2.6,2.6
		v44.8c0,1.4,1.2,2.6,2.6,2.6h20.7c1.4,0,2.6-1.2,2.6-2.6V166.8z M23.1,167.9h6.3c0.2,0,0.4,0.4,0.4,0.6s-0.2,0.6-0.4,0.6h-6.3
		c-0.2,0-0.4-0.4-0.4-0.6S22.8,167.9,23.1,167.9z M26.2,212.4c-1.3,0-2.4-1.1-2.4-2.4s1.1-2.4,2.4-2.4c1.3,0,2.4,1.1,2.4,2.4
		S27.6,212.4,26.2,212.4z M38.5,206.9H13.8V171h24.7V206.9z M37.9,161.6c1.3-0.3,2.8,0,3.9,1.1c1,1,1.4,2.5,1.1,3.9
		c0-1.2-0.5-2.4-1.5-3.4C40.3,162.1,39.1,161.6,37.9,161.6z M43.7,160.7c1.3,1.3,2,2.9,2,4.5c0.4-1.8,0-3.7-1.4-5.1
		c-1.4-1.4-3.3-1.9-5.1-1.4C40.8,158.7,42.4,159.4,43.7,160.7z M46.1,158.3c1.6,1.6,2.5,3.7,2.5,5.6c0.5-2.2,0-4.7-1.8-6.4
		c-1.7-1.7-4.2-2.3-6.4-1.8C42.5,155.8,44.5,156.7,46.1,158.3z M190.8,208.1v1.5c0,0,0,2.2-2.2,2.2h-69.9c-2.2,0-2.2-2.2-2.2-2.2
		v-1.5h32v0.7c0,0.4,0.3,0.7,0.7,0.7h8.9c0.4,0,0.7-0.3,0.7-0.7v-0.7H190.8z M181.9,172.4v0.7v30.5c0,1.2-1,2.2-2.2,2.2h-0.7h-50.6
		h-0.7c-1.2,0-2.2-1-2.2-2.2v-30.5v-0.7c0-1.2,1-2.2,2.2-2.2h52.1C180.9,170.1,181.9,171.1,181.9,172.4z M178.9,173.1h-50.6v29.8
		h50.6V173.1z M183.8,168.9c1.2,1.2,1.8,2.7,1.8,4.1c0.4-1.6,0-3.4-1.3-4.6c-1.3-1.3-3-1.7-4.6-1.3
		C181.2,167.1,182.6,167.7,183.8,168.9z M181.3,163.6c2.1-0.5,4.5,0,6.2,1.7c1.7,1.7,2.2,4,1.7,6.2c0-1.9-0.9-3.9-2.4-5.4
		C185.2,164.4,183.2,163.6,181.3,163.6z M182.8,160.1c2.7-0.7,5.6,0.1,7.7,2.1c2.1,2.1,2.8,5,2.1,7.7c-0.1-2.4-1.1-4.8-3-6.8
		C187.7,161.2,185.2,160.1,182.8,160.1z M128.6,8.5l-0.1-0.2c0.4-0.3,0.4-0.4,0.4-0.4s-0.2-0.6-0.8-0.2c-0.6,0.4-0.2,0.8-0.2,0.8
		s0.1,0.1,0.5-0.1l0.1,0.2c0,0-0.6,0.3-1.3,0.7l-0.1-0.2c0.4-0.3,0.4-0.4,0.4-0.4s-0.2-0.6-0.8-0.2c-0.6,0.4-0.2,0.8-0.2,0.8
		s0.1,0.1,0.5-0.1l0.1,0.2c-0.4,0.2-0.8,0.4-1.2,0.7l-0.1-0.2c0.4-0.3,0.4-0.4,0.4-0.4s-0.2-0.6-0.8-0.2c-0.6,0.4-0.2,0.8-0.2,0.8
		s0.1,0.1,0.5-0.1l0.1,0.2c-0.4,0.2-0.8,0.4-1.3,0.7l-0.1-0.2c0.4-0.3,0.4-0.4,0.4-0.4s-0.2-0.6-0.8-0.2c-0.6,0.4-0.2,0.8-0.2,0.8
		s0.1,0.1,0.5-0.1l0.1,0.2c-0.4,0.2-0.9,0.5-1.3,0.7l-0.1-0.2c0.4-0.3,0.4-0.4,0.4-0.4s-0.2-0.6-0.8-0.2c-0.6,0.4-0.2,0.8-0.2,0.8
		s0.1,0.1,0.5-0.1l0.1,0.2c-0.5,0.3-0.9,0.5-1.3,0.7l-0.1-0.2c0.4-0.3,0.4-0.4,0.4-0.4s-0.2-0.6-0.8-0.2c-0.6,0.4-0.2,0.8-0.2,0.8
		s0.1,0.1,0.5-0.1l0.1,0.2c-0.2,0.1-0.3,0.2-0.4,0.2c-0.8,0.5-1,0.6-0.9,1c0.2,0.4,0,0.8,0,0.8c0,0,0,0,0,0c-0.2,0.2-1,1-1.5,1.4
		c-1.1,1.1-2.2,2.1-3.3,3.2c-1.4,1.3-2.8,2.7-4.1,4c-1.4,1.4-2.8,2.7-4.2,4.1c-1.5,1.5-3.1,3-4.6,4.5c-0.5,0.4-0.9,0.9-1.6,0.7
		c-0.6-0.1-1.1-0.7-1.4-1.3c-0.5-1.2,0-2.5,0.7-3.5c0.4-0.5,1.2-1.2,0.7-1.8c-0.9-1-2.6,0.2-3.4,0.8C95.8,28.1,95,30,93.9,32
		c-0.5,1-1.2,2-2.1,2.7c-0.9,0.7-2,1-3,1.3c-0.7,0.2-1.3,0.5-1.9,0.8c-2.4,1.1-4.9,2.8-5.7,5.4c-0.4,1.3-0.2,2.6,0.3,3.8
		c0.3,0.6,0.6,1.2,0.9,1.8c1.4,2.3,3.4,4.3,5.5,6.1c1,0.9,2.1,1.6,3.4,2c1.6,0.4,3.3,0,4.7-0.7c2.8-1.6,4.2-6.6,4.2-6.6
		c0.2-0.6,0.4-1.2,0.6-1.8c0.4-1,1.1-1.9,2-2.5c0.5-0.3,1-0.5,1.5-0.8c0.6-0.3,1.2-0.5,1.8-0.9c0.9-0.5,1.7-1.2,2.2-2.2
		c0.1-0.3,0.3-0.6,0.3-1c0-0.5-0.2-1-0.7-1.1c-0.5-0.1-1,0.3-1.4,0.6c-0.5,0.3-1.1,0.6-1.7,0.7c-0.5,0.1-1-0.1-1.4-0.5
		c-0.5-0.4-1.2-1.2-1.2-2c0-0.1,0-0.1,0-0.2c0,0,18-18.7,19.8-20.4c1.7-1.7,3.2-0.9,3.2-0.9c1-0.9,2.2-3.1,2.7-3.9
		c0.5-0.8,1.2,0.1,2.1-0.3c0.9-0.5,1.5-1.8,0.7-2.7C129.9,8.1,128.9,8.4,128.6,8.5z M99.9,33.7c0.4,1.2,0.9,2.3,1.4,3.5
		c0.6,1.2,1,2.7,2.5,3.1c0.3,0.1,0.7,0.2,1.1,0.1c0.9-0.1,1.6-0.5,2.3-0.9c0.2-0.1,0.5-0.4,0.6-0.2c0.2,0.2,0,0.7-0.1,0.9
		c-0.2,0.5-0.6,0.9-1,1.2c-1.4,1.1-3.1,1.5-4.5,2.5c-0.7,0.5-1.2,1.2-1.6,2c-0.6,1.3-1.1,2.6-1.6,3.9c-0.1,0.2-0.2,0.4-0.2,0.6
		c-0.2,0.6-0.5,1.2-0.8,1.8c-0.3,0.5-0.8,1.4-1.5,1.2c-0.3-0.1-0.4-0.3-0.5-0.5c-0.3-0.5-0.2-1.2-0.3-1.8c0-0.7-0.2-1.5-0.5-2.1
		c-0.3-0.6-0.6-1.1-1.1-1.5c-0.4-0.5-0.9-0.9-1.3-1.3c-0.7-0.6-1.3-1.3-2-2c-0.5-0.4-1.1-0.9-1.3-1.5c-0.5-1.6,0.9-3,2.1-3.8
		c0.4-0.2,0.8-0.4,1.2-0.6c1.5-0.6,2.9-1.3,4.1-2.4c0.7-0.7,1.2-1.5,1.7-2.2c0.2-0.2,0.3-0.5,0.6-0.6C99.6,32.6,99.8,33.2,99.9,33.7
		z M96.7,50.7c0.5,0,0.8,0.4,0.8,0.8s-0.4,0.8-0.8,0.8s-0.8-0.4-0.8-0.8S96.3,50.7,96.7,50.7z M96.5,47.8c0.5,0,0.8,0.4,0.8,0.8
		c0,0.5-0.4,0.8-0.8,0.8c-0.5,0-0.8-0.4-0.8-0.8C95.7,48.2,96,47.8,96.5,47.8z M95.7,45.1c0.5,0,0.8,0.4,0.8,0.8
		c0,0.4-0.4,0.8-0.8,0.8s-0.8-0.4-0.8-0.8C94.9,45.5,95.2,45.1,95.7,45.1z M97.8,41.2c0.2,0.2,0.2,0.6,0,0.8l0,0
		c-0.2,0.2-0.6,0.2-0.8,0l-2.3-2.3c-0.2-0.2-0.2-0.6,0-0.8l0,0c0.2-0.2,0.6-0.2,0.8,0L97.8,41.2z M95.1,44c0.2,0.3,0.1,0.6-0.2,0.8
		l0,0c-0.3,0.2-0.6,0.1-0.8-0.2L92.2,42c-0.2-0.3-0.1-0.6,0.2-0.8l0,0c0.3-0.2,0.6-0.1,0.8,0.2L95.1,44z M100.5,38.5
		c0.2,0.2,0.2,0.6,0,0.8l0,0c-0.2,0.2-0.6,0.2-0.8,0L97.4,37c-0.2-0.2-0.2-0.6,0-0.8l0,0c0.2-0.2,0.6-0.2,0.8,0L100.5,38.5z
		 M181.3,25l5.8,4.1l-17.2,21.5l-2.9-2L181.3,25z M166.2,51.2c-0.4,0.5-0.8,0.9-1.4,1c-1.1,0.3-2.5-0.1-3.7,0
		c-2.1,0.2-3.4,1.5-4.4,3.2l-0.4,0.8l1.5,0.9l0.4-0.8c0.7-1.2,1.6-2.2,3.1-2.4c1.2-0.1,2.4,0.2,3.7,0c1.2-0.2,2-0.9,2.7-1.8l0.5-0.7
		l-1.5-1L166.2,51.2z M190.9,17.4c-2.8-2-6.7-1.3-8.6,1.5c-0.8,1.1-1.1,2.3-1.1,3.5l8.3,5.8c1.1-0.4,2.2-1.2,2.9-2.3
		C194.4,23.3,193.7,19.4,190.9,17.4z M8.9,46.8H8.4v6.1c0,0.3-0.3,0.6-0.6,0.6c-0.3,0-0.6-0.3-0.6-0.6v-6.1H6.7
		c-0.5,0-0.9-0.4-0.9-0.9s0.4-0.9,0.9-0.9h0.5V31.6c0-0.3,0.3-0.6,0.6-0.6c0.3,0,0.6,0.3,0.6,0.6v13.4h0.5c0.5,0,0.9,0.4,0.9,0.9
		S9.4,46.8,8.9,46.8 M16.6,49.8h-0.5v3c0,0.3-0.3,0.6-0.6,0.6c-0.3,0-0.6-0.3-0.6-0.6v-3h-0.5c-0.5,0-0.9-0.4-0.9-0.9
		c0-0.5,0.4-0.9,0.9-0.9h0.5V31.6c0-0.3,0.3-0.6,0.6-0.6c0.3,0,0.6,0.3,0.6,0.6V48h0.5c0.5,0,0.9,0.4,0.9,0.9
		C17.5,49.4,17.1,49.8,16.6,49.8 M24.3,37.6h-0.5v15.3c0,0.3-0.3,0.6-0.6,0.6c-0.3,0-0.6-0.3-0.6-0.6V37.6h-0.5
		c-0.5,0-0.9-0.4-0.9-0.9s0.4-0.9,0.9-0.9h0.5v-4.2c0-0.3,0.3-0.6,0.6-0.6c0.3,0,0.6,0.3,0.6,0.6v4.2h0.5c0.5,0,0.9,0.4,0.9,0.9
		S24.8,37.6,24.3,37.6 M32,47.3h-0.5v5.6c0,0.3-0.3,0.6-0.6,0.6c-0.3,0-0.6-0.3-0.6-0.6v-5.6h-0.5c-0.5,0-0.9-0.4-0.9-0.9
		s0.4-0.9,0.9-0.9h0.5V31.6c0-0.3,0.3-0.6,0.6-0.6c0.3,0,0.6,0.3,0.6,0.6v13.8H32c0.5,0,0.9,0.4,0.9,0.9S32.5,47.3,32,47.3
		 M39.7,51.2h-0.5v1.7c0,0.3-0.3,0.6-0.6,0.6c-0.3,0-0.6-0.3-0.6-0.6v-1.7h-0.5c-0.5,0-0.9-0.4-0.9-0.9c0-0.5,0.4-0.9,0.9-0.9H38
		V31.6c0-0.3,0.3-0.6,0.6-0.6c0.3,0,0.6,0.3,0.6,0.6v17.8h0.5c0.5,0,0.9,0.4,0.9,0.9C40.7,50.8,40.3,51.2,39.7,51.2"/>
	<path class="st8" d="M141.9,399.6"/>
	<g>
		<path class="st6" d="M53.8,81.5h-2.3L50,77.2l0,6.7h-2.5l0.3-11.8h2.7l2.1,6.6l2.1-6.6h2.7l0.3,11.8h-2.5l0-6.7L53.8,81.5z"/>
		<path class="st6" d="M66.3,72.1v8.6c0,2.1-1,3.4-3.7,3.4S59,82.8,59,80.7v-8.6h2.5v8.8c0,0.7,0.3,1.1,1.2,1.1s1.2-0.4,1.2-1.1
			v-8.8H66.3z"/>
		<path class="st6" d="M70.3,84.1c-0.8,0-1.7-0.1-2.6-0.4l0.3-2.1c0.7,0.3,1.5,0.3,2,0.3c1.1,0,1.4-0.4,1.4-1.3
			c0-1.1-0.2-1.2-1.3-1.6c-2.5-0.8-2.6-1.8-2.6-3.9c0-2.4,1.3-3.3,3.4-3.3c0.9,0,1.8,0.1,2.5,0.3l-0.3,2.1c-0.5-0.2-1.2-0.3-1.9-0.3
			c-0.9,0-1.2,0.3-1.2,1.1c0,0.9,0.1,1.1,1.5,1.6c2,0.8,2.4,1.2,2.4,3.8C73.9,83,72.6,84.1,70.3,84.1z"/>
		<path class="st6" d="M75,83.9V72.1h2.5v11.8H75z"/>
		<path class="st6" d="M82.9,82c0.6,0,1.3-0.1,1.8-0.2l0.3,2.1c-0.7,0.2-1.6,0.3-2.4,0.3c-2.6,0-3.7-1.4-3.7-3.6v-5.2
			c0-2.2,1.1-3.6,3.7-3.6c0.8,0,1.8,0.1,2.4,0.3l-0.3,2.1c-0.5-0.1-1.2-0.2-1.8-0.2c-1.1,0-1.5,0.5-1.5,1.6v4.7
			C81.4,81.5,81.8,82,82.9,82z"/>
		<path class="st6" d="M92.1,84.1c-0.8,0-1.7-0.1-2.6-0.4l0.3-2.1c0.7,0.3,1.5,0.3,2,0.3c1.1,0,1.4-0.4,1.4-1.3
			c0-1.1-0.2-1.2-1.3-1.6c-2.5-0.8-2.6-1.8-2.6-3.9c0-2.4,1.3-3.3,3.4-3.3c0.9,0,1.8,0.1,2.5,0.3l-0.3,2.1C94.4,74.2,93.7,74,93,74
			c-0.9,0-1.2,0.3-1.2,1.1c0,0.9,0.1,1.1,1.5,1.6c2,0.8,2.4,1.2,2.4,3.8C95.6,83,94.3,84.1,92.1,84.1z"/>
		<path class="st6" d="M100.2,84.1c-2.9,0-3.6-1.6-3.6-3.7v-4.9c0-2,0.8-3.7,3.6-3.7c2.9,0,3.6,1.6,3.6,3.7v4.9
			C103.8,82.5,103.1,84.1,100.2,84.1z M100.2,74c-0.9,0-1.1,0.5-1.1,1.3v5.4c0,0.8,0.2,1.3,1.1,1.3c0.9,0,1.1-0.5,1.1-1.3v-5.4
			C101.3,74.5,101.1,74,100.2,74z"/>
		<path class="st6" d="M112.5,72.1v8.6c0,2.1-1,3.4-3.7,3.4c-2.7,0-3.7-1.4-3.7-3.4v-8.6h2.5v8.8c0,0.7,0.3,1.1,1.2,1.1
			c0.9,0,1.2-0.4,1.2-1.1v-8.8H112.5z"/>
		<path class="st6" d="M116.5,83.9H114V72.1h4c2.3,0,3.2,0.9,3.2,3v1.5c0,1.2-0.5,2.1-1.5,2.6l2.1,4.7H119l-1.8-4.3h-0.7V83.9z
			 M116.5,77.5h1.3c0.6,0,0.9-0.3,0.9-0.9v-1.4c0-0.7-0.3-0.9-0.9-0.9h-1.3V77.5z"/>
		<path class="st6" d="M126.5,82c0.6,0,1.3-0.1,1.8-0.2l0.3,2.1c-0.7,0.2-1.6,0.3-2.4,0.3c-2.6,0-3.7-1.4-3.7-3.6v-5.2
			c0-2.2,1.1-3.6,3.7-3.6c0.8,0,1.8,0.1,2.4,0.3l-0.3,2.1c-0.5-0.1-1.2-0.2-1.8-0.2c-1.1,0-1.5,0.5-1.5,1.6v4.7
			C124.9,81.5,125.3,82,126.5,82z"/>
		<path class="st6" d="M129.8,83.9V72.1h6.1v2.2h-3.6v2.6h3.3V79h-3.3v2.7h3.6v2.2H129.8z"/>
	</g>
	<g>
		<path class="st6" d="M46.3,240.1v-11.8h2.5v9.7h3v2.2H46.3z"/>
		<path class="st6" d="M53,240.1v-11.8h2.5v11.8H53z"/>
		<path class="st6" d="M61.2,228.3h2.6l-2.3,11.8h-3l-2.3-11.8h2.6l1.2,8.3L61.2,228.3z"/>
		<path class="st6" d="M64.6,240.1v-11.8h6.1v2.2h-3.6v2.6h3.3v2.2h-3.3v2.7h3.6v2.2H64.6z"/>
		<path class="st6" d="M75.8,238.2c0.6,0,1.3-0.1,1.8-0.2l0.3,2.1c-0.7,0.2-1.6,0.3-2.4,0.3c-2.6,0-3.7-1.4-3.7-3.6v-5.2
			c0-2.2,1.1-3.6,3.7-3.6c0.8,0,1.8,0.1,2.4,0.3l-0.3,2.1c-0.5-0.1-1.2-0.2-1.8-0.2c-1.1,0-1.5,0.5-1.5,1.6v4.7
			C74.2,237.7,74.6,238.2,75.8,238.2z"/>
		<path class="st6" d="M86.5,240.1H84l-0.4-2.4h-2.2l-0.4,2.4h-2.5l2.6-11.8h2.9L86.5,240.1z M81.7,235.6h1.5l-0.7-4.5L81.7,235.6z"
			/>
		<path class="st6" d="M89.8,240.3c-0.8,0-1.7-0.1-2.6-0.4l0.3-2.1c0.7,0.3,1.5,0.3,2,0.3c1.1,0,1.4-0.4,1.4-1.3
			c0-1.1-0.2-1.2-1.3-1.6c-2.5-0.8-2.6-1.8-2.6-3.9c0-2.4,1.3-3.3,3.4-3.3c0.9,0,1.8,0.1,2.5,0.3l-0.3,2.1c-0.5-0.2-1.2-0.3-1.9-0.3
			c-0.9,0-1.2,0.3-1.2,1.1c0,0.9,0.1,1.1,1.5,1.6c2,0.8,2.4,1.2,2.4,3.8C93.3,239.2,92,240.3,89.8,240.3z"/>
		<path class="st6" d="M98.3,230.5v9.7h-2.5v-9.7h-2.2v-2.2h6.8v2.2H98.3z"/>
		<path class="st6" d="M108.6,228.3c2.4,0,3.4,1.1,3.4,3.6v4.7c0,2.5-1,3.6-3.4,3.6h-3.8v-11.8H108.6z M107.3,238h1
			c0.9,0,1.2-0.4,1.2-1.3v-4.9c0-0.9-0.3-1.3-1.2-1.3h-1V238z"/>
		<path class="st6" d="M113.4,240.1v-11.8h6.1v2.2h-3.6v2.6h3.3v2.2h-3.3v2.7h3.6v2.2H113.4z"/>
		<path class="st6" d="M125,228.3h2.6l-2.3,11.8h-3l-2.3-11.8h2.6l1.2,8.3L125,228.3z"/>
		<path class="st6" d="M128.4,240.1v-11.8h2.5v11.8H128.4z"/>
		<path class="st6" d="M136.3,238.2c0.6,0,1.3-0.1,1.8-0.2l0.3,2.1c-0.7,0.2-1.6,0.3-2.4,0.3c-2.6,0-3.7-1.4-3.7-3.6v-5.2
			c0-2.2,1.1-3.6,3.7-3.6c0.8,0,1.8,0.1,2.4,0.3l-0.3,2.1c-0.5-0.1-1.2-0.2-1.8-0.2c-1.1,0-1.5,0.5-1.5,1.6v4.7
			C134.8,237.7,135.2,238.2,136.3,238.2z"/>
		<path class="st6" d="M139.6,240.1v-11.8h6.1v2.2h-3.6v2.6h3.3v2.2h-3.3v2.7h3.6v2.2H139.6z"/>
	</g>
	<g>
		<path class="st7" d="M56.4,343.4c0.6,0,1.3-0.1,1.8-0.2l0.3,2.1c-0.7,0.2-1.6,0.3-2.4,0.3c-2.6,0-3.7-1.3-3.7-3.6v-5.2
			c0-2.2,1.1-3.6,3.7-3.6c0.8,0,1.8,0.1,2.4,0.3l-0.3,2.1c-0.5-0.1-1.2-0.2-1.8-0.2c-1.1,0-1.5,0.5-1.5,1.6v4.7
			C54.9,343,55.3,343.4,56.4,343.4z"/>
		<path class="st7" d="M59.7,345.4v-11.8h2.5v9.7h3v2.2H59.7z"/>
		<path class="st7" d="M69.6,345.6c-2.9,0-3.6-1.6-3.6-3.7V337c0-2,0.8-3.7,3.6-3.7c2.9,0,3.6,1.6,3.6,3.7v4.9
			C73.3,344,72.5,345.6,69.6,345.6z M69.6,335.5c-0.9,0-1.1,0.5-1.1,1.3v5.4c0,0.8,0.2,1.3,1.1,1.3c0.9,0,1.1-0.5,1.1-1.3v-5.4
			C70.8,336,70.6,335.5,69.6,335.5z"/>
		<path class="st7" d="M81.9,333.6v8.6c0,2.1-1,3.4-3.7,3.4s-3.7-1.4-3.7-3.4v-8.6h2.5v8.8c0,0.7,0.3,1.1,1.2,1.1s1.2-0.4,1.2-1.1
			v-8.8H81.9z"/>
		<path class="st7" d="M87.2,333.6c2.4,0,3.4,1.1,3.4,3.6v4.7c0,2.5-1,3.6-3.4,3.6h-3.8v-11.8H87.2z M85.9,343.2h1
			c0.9,0,1.2-0.4,1.2-1.3V337c0-0.9-0.2-1.3-1.2-1.3h-1V343.2z"/>
		<path class="st7" d="M97.8,345.6c-0.8,0-1.7-0.1-2.6-0.4l0.3-2.1c0.7,0.3,1.5,0.3,2,0.3c1.1,0,1.4-0.4,1.4-1.3
			c0-1.1-0.2-1.2-1.3-1.6c-2.5-0.8-2.6-1.8-2.6-3.9c0-2.4,1.3-3.3,3.4-3.3c0.9,0,1.8,0.1,2.5,0.3l-0.3,2.1c-0.5-0.2-1.2-0.3-1.9-0.3
			c-0.9,0-1.2,0.3-1.2,1.1c0,0.9,0.1,1.1,1.5,1.6c2,0.8,2.4,1.2,2.4,3.8C101.4,344.5,100.1,345.6,97.8,345.6z"/>
		<path class="st7" d="M102.5,345.4v-11.8h6.1v2.2H105v2.6h3.3v2.2H105v2.7h3.6v2.2H102.5z"/>
		<path class="st7" d="M112.4,345.4h-2.5v-11.8h4c2.3,0,3.2,0.9,3.2,3v1.5c0,1.2-0.5,2.1-1.5,2.6l2.1,4.7H115l-1.8-4.3h-0.7V345.4z
			 M112.4,339h1.3c0.6,0,0.9-0.3,0.9-0.9v-1.4c0-0.7-0.3-0.9-0.9-0.9h-1.3V339z"/>
		<path class="st7" d="M122.5,333.6h2.6l-2.3,11.8h-3l-2.3-11.8h2.6l1.2,8.3L122.5,333.6z"/>
		<path class="st7" d="M126,345.4v-11.8h2.5v11.8H126z"/>
		<path class="st7" d="M133.9,343.4c0.6,0,1.3-0.1,1.8-0.2l0.3,2.1c-0.7,0.2-1.6,0.3-2.4,0.3c-2.6,0-3.7-1.3-3.7-3.6v-5.2
			c0-2.2,1.1-3.6,3.7-3.6c0.8,0,1.8,0.1,2.4,0.3l-0.3,2.1c-0.5-0.1-1.2-0.2-1.8-0.2c-1.1,0-1.5,0.5-1.5,1.6v4.7
			C132.3,343,132.7,343.4,133.9,343.4z"/>
		<path class="st7" d="M137.2,345.4v-11.8h6.1v2.2h-3.6v2.6h3.3v2.2h-3.3v2.7h3.6v2.2H137.2z"/>
	</g>
	<g>
		<path class="st6" d="M76.3,503.5c-1.4-0.6-1.5-0.7-1.5-1.6c0-0.8,0.4-1.1,1.2-1.1c0.7,0,1.4,0.1,1.9,0.3l0.3-2.1
			c-0.7-0.2-1.6-0.3-2.5-0.3c-2.1,0-3.4,0.9-3.4,3.3c0,2.2,0.1,3.2,2.6,3.9c1.1,0.4,1.3,0.5,1.3,1.6c0,0.8-0.3,1.3-1.4,1.3
			c-0.6,0-1.3-0.1-2-0.3l-0.3,2.1c0.9,0.3,1.8,0.4,2.6,0.4c2.3,0,3.6-1.1,3.6-3.6C78.7,504.7,78.3,504.3,76.3,503.5z"/>
		<polygon class="st6" points="79,501 81,501 81,511 84,511 84,501 86,501 86,499 79,499 		"/>
		<path class="st6" d="M90.5,498.7c-2.9,0-3.5,1.6-3.5,3.7v4.9c0,2,0.6,3.7,3.5,3.7c2.9,0,3.5-1.6,3.5-3.7v-4.9
			C94,500.3,93.4,498.7,90.5,498.7z M91,507.5c0,0.8-0.1,1.3-1,1.3c-0.9,0-1-0.5-1-1.3v-5.4c0-0.8,0.1-1.3,1-1.3c0.9,0,1,0.5,1,1.3
			V507.5z"/>
		<polygon class="st6" points="102.6,499 99.8,499 98,504.4 98,499 95,499 95,511 98,511 98,505.3 100.1,511 102.9,511 100.5,504.9 
					"/>
		<polygon class="st6" points="104,511 110,511 110,509 106,509 106,506 110,506 110,504 106,504 106,501 110,501 110,499 104,499 
					"/>
		<path class="st6" d="M115.1,499H111v12h4.1c2.4,0,2.9-1.4,2.9-3.9v-4.7C118,499.9,117.4,499,115.1,499z M116,507.2
			c0,0.9-0.3,1.8-1.2,1.8H114v-8h0.8c0.9,0,1.2,0.4,1.2,1.3V507.2z"/>
	</g>
</g>
</svg>
