<?xml version="1.0" encoding="utf-8"?>
<!-- Generator: Adobe Illustrator 17.1.0, SVG Export Plug-In . SVG Version: 6.00 Build 0)  -->
<!DOCTYPE svg PUBLIC "-//W3C//DTD SVG 1.1//EN" "http://www.w3.org/Graphics/SVG/1.1/DTD/svg11.dtd">
<svg version="1.1" id="Layer_1" xmlns="http://www.w3.org/2000/svg" xmlns:xlink="http://www.w3.org/1999/xlink" x="0px" y="0px"
	 viewBox="0 0 120 120" style="enable-background:new 0 0 120 120;" xml:space="preserve">
<style type="text/css">
	.st0{fill:#FF5F3C;}
	.st1{fill:#FFFFFF;}
</style>
<rect x="-44.2" y="21.3" transform="matrix(0.7071 -0.7071 0.7071 0.7071 -13.2208 37.5086)" class="st0" width="165.8" height="26.9"/>
<g>
	<path class="st1" d="M9.9,50.8l3.9-3.9c1.8-1.8,3.3-2.8,4.7-3.1c1.3-0.3,2.5,0.1,3.6,1.2c0.8,0.8,1.2,1.5,1.3,2.4
		c0.1,0.8-0.1,1.6-0.5,2.3l0.1,0.1c1-0.6,1.9-0.9,2.7-0.7c0.8,0.1,1.7,0.6,2.5,1.4c1.2,1.2,1.6,2.5,1.4,3.9c-0.2,1.5-1,2.9-2.4,4.4
		l-4.7,4.7L9.9,50.8z M17.6,53.1l1.6-1.6c0.7-0.7,1.1-1.4,1.2-1.9s-0.1-1.1-0.6-1.6c-0.5-0.5-1-0.7-1.6-0.5c-0.6,0.1-1.2,0.6-2,1.4
		l-1.4,1.4L17.6,53.1z M19.7,55.2l3.3,3.3l1.7-1.7c0.7-0.7,1.1-1.4,1.2-2.1c0.1-0.6-0.2-1.2-0.8-1.8c-1-1-2.3-0.8-3.8,0.7L19.7,55.2
		z"/>
	<path class="st1" d="M41.7,44.2l-7.3,7.3L21.8,38.9l7.3-7.3l2.2,2.2l-4.6,4.6l2.8,2.8l4.3-4.3l2.2,2.2l-4.3,4.3l3.3,3.3l4.6-4.6
		L41.7,44.2z"/>
	<path class="st1" d="M49.2,36.7l-2.7,2.7L36.1,29l-3.4,3.4l-2.2-2.2l9.5-9.5l2.2,2.2l-3.4,3.4L49.2,36.7z"/>
	<path class="st1" d="M62.3,23.7l-3.9-2.1l-4.6,4.6l2.1,3.9L52.9,33l-8.2-17.1l3.3-3.3l17.1,8.2L62.3,23.7z M55.5,20
		c-3.6-1.9-5.6-2.9-6-3.2c-0.5-0.2-0.8-0.5-1.1-0.6c0.5,0.9,1.8,3.3,3.8,7.1L55.5,20z"/>
</g>
</svg>
