<?xml version="1.0" encoding="utf-8"?>
<!-- Generator: Adobe Illustrator 17.1.0, SVG Export Plug-In . SVG Version: 6.00 Build 0)  -->
<!DOCTYPE svg PUBLIC "-//W3C//DTD SVG 1.1//EN" "http://www.w3.org/Graphics/SVG/1.1/DTD/svg11.dtd">
<svg version="1.1" id="Layer_1" xmlns="http://www.w3.org/2000/svg" xmlns:xlink="http://www.w3.org/1999/xlink" x="0px" y="0px"
	 viewBox="0 0 129 24" style="enable-background:new 0 0 129 24;" xml:space="preserve">
<style type="text/css">
	.st0{fill:#FFFFFF;}
</style>
<path class="st0" d="M101.8,9.7c-1.4,0-2.4,0.5-3.3,1.5c-0.9,1-1.4,2.2-1.4,3.8s0.4,2.8,1.4,3.8c0.9,1,2,1.5,3.3,1.5
	s2.4-0.5,3.3-1.5c0.9-1,1.4-2.2,1.4-3.8s-0.5-2.8-1.4-3.8C104.3,10.1,103.1,9.7,101.8,9.7z M83.8,9.6c-1.3,0-2.4,0.5-3.3,1.5
	c-1,1-1.4,2.2-1.4,3.8c0,0.9,0.1,1.7,0.4,2.2c0.2,0.7,0.6,1.2,1,1.7c0.9,1,2,1.5,3.3,1.5s2.5-0.5,3.4-1.5c0.9-1,1.4-2.3,1.4-4
	c0-1.6-0.5-2.7-1.4-3.8C86.2,10,85.1,9.6,83.8,9.6z M65.4,9.7c-1.4,0-2.4,0.5-3.3,1.5c-0.9,1-1.4,2.2-1.4,3.8s0.5,2.8,1.4,3.8
	c0.9,1,2,1.5,3.3,1.5s2.4-0.5,3.3-1.5c0.9-1,1.4-2.2,1.4-3.8s-0.5-2.8-1.4-3.8C67.8,10.1,66.7,9.7,65.4,9.7z M37.4,9.6
	c-1.3,0-2.3,0.5-3.3,1.6c-0.9,1.1-1.4,2.3-1.4,3.9c0,1.5,0.5,2.7,1.4,3.7c0.9,1,2.1,1.5,3.3,1.5c1.4,0,2.5-0.5,3.3-1.5
	c0.9-1,1.4-2.2,1.4-3.8s-0.5-2.8-1.5-3.8C39.9,10,38.8,9.6,37.4,9.6z M65.8,0.3h2.2V1h-1.5v0.7h1.5v0.7h-1.5v0.6h1.5v0.7h-2.2V0.3z
	 M59.3,0.3H60v1.4h1.1V0.3h0.7v3.2h-0.7V2.3H60v1.2h-0.7V0.3z M53.3,0.3h2.2V1h-0.8v2.5h-0.7V1h-0.8L53.3,0.3L53.3,0.3z M10.7,19.9
	v3.4H4.2V10H1.5V6.6h6.4v1.8c0.1,0,0.3-0.2,0.6-0.4C8.7,7.8,9,7.6,9.3,7.5c0.7-0.3,1.3-0.6,1.9-0.7c0.6-0.1,1.2-0.2,2-0.2h1.6v3.2
	h-1.6c-1,0-1.8,0.1-2.4,0.3C10,10.3,9.5,10.6,9.1,11c-0.4,0.3-0.7,0.7-0.9,1.2c-0.2,0.5-0.3,1.1-0.3,2v5.6L10.7,19.9L10.7,19.9z
	 M29.5,23.3h-6.1v-1.1c-0.7,0.4-1.4,0.7-2.1,1c-0.7,0.3-1.5,0.4-2.2,0.4c-1.6,0-2.9-0.5-3.9-1.6c-1.1-1-1.6-2.2-1.6-3.7
	c0-1.6,0.6-2.9,1.9-4c0.6-0.5,1.3-0.9,2.1-1.2c0.8-0.2,1.7-0.4,2.5-0.4c0.7,0,1.5,0.1,2.2,0.3c0.2,0,0.3,0.1,0.5,0.1
	c0.2,0.1,0.4,0.1,0.6,0.2v-2c0-0.4-0.1-0.7-0.2-1c-0.1-0.2-0.3-0.4-0.5-0.6c-0.2-0.2-0.6-0.3-0.9-0.4c-0.4-0.1-0.8-0.1-1.4-0.1
	c-0.3,0-0.6,0-0.9,0.1c-0.4,0.1-0.7,0.2-1.1,0.3c-0.4,0.1-0.7,0.2-1,0.4c-0.3,0.1-0.6,0.2-0.8,0.3l-1.2-2.8c0.7-0.3,1.4-0.5,1.9-0.7
	c0.5-0.2,1.1-0.3,1.7-0.5c0.6-0.1,1.1-0.2,1.5-0.2c1,0,1.8,0.1,2.5,0.3c0.8,0.2,1.5,0.5,2.1,0.9c0.6,0.5,1.1,1.1,1.4,1.7
	c0.3,0.7,0.4,1.4,0.4,2.2v8.5h2.4L29.5,23.3L29.5,23.3z M48.4,23.3h-6.3V22c-0.2,0.2-0.4,0.3-0.6,0.4s-0.4,0.2-0.6,0.3
	c-1.1,0.6-2.2,0.8-3.5,0.8c-2.3,0-4.3-0.8-5.9-2.4c-1.6-1.7-2.3-3.6-2.3-6.1c0-2.5,0.8-4.6,2.2-6.3C33,7,34.9,6.1,37.2,6.1
	c1.3,0,2.4,0.3,3.5,0.9c0.5,0.2,0.9,0.5,1.3,0.8V0.3h6.3v3.4h-2.6v16.2h2.5v3.4H48.4z M57,23.3h-6L50.9,22V10h-2.5V6.6h6.2v13.3h2.5
	L57,23.3L57,23.3z M71.2,21.2c-1.6,1.7-3.5,2.5-5.9,2.5c-2.3,0-4.3-0.9-5.9-2.5c-1.6-1.7-2.3-3.7-2.3-6.2s0.8-4.5,2.3-6.2
	c1.6-1.7,3.5-2.5,5.9-2.5c2.3,0,4.3,0.9,5.9,2.5c1.6,1.7,2.3,3.7,2.3,6.2S72.8,19.5,71.2,21.2z M89.6,21c-1.6,1.7-3.6,2.4-6.1,2.4
	c-1.1,0-2.2-0.3-3.3-0.8c-0.2-0.1-0.5-0.2-0.6-0.4c-0.2-0.1-0.4-0.3-0.6-0.5v1.4h-3.6V3.7h-2.6V0.3h6.3v7.6c0.4-0.3,0.8-0.6,1.2-0.8
	c1.2-0.6,2.3-0.9,3.5-0.9c2.3,0,4.4,0.8,6,2.4c1.6,1.6,2.3,3.6,2.3,6.1C92,17.3,91.2,19.4,89.6,21z M107.7,21.2
	c-1.6,1.7-3.5,2.5-5.9,2.5c-2.3,0-4.4-0.9-5.9-2.5c-1.6-1.7-2.3-3.7-2.3-6.2s0.8-4.5,2.3-6.2c1.6-1.7,3.5-2.5,5.9-2.5
	c2.3,0,4.3,0.9,5.9,2.5c1.6,1.7,2.3,3.7,2.3,6.2S109.3,19.5,107.7,21.2z M127.4,23.3h-3.9l-1.1-1.4l-3.6-4.4L117,20h1.9v3.4h-8.7
	l2.3-3l4.2-5.6l-3.7-4.7h-2.4V6.7h7.3V10h-0.7l1.6,2l1.6-2h-0.6V6.6h7.3V10h-2.4l-3.6,4.7l4.2,5.2h2.3L127.4,23.3L127.4,23.3z
	 M20.4,15.8c-0.6,0-1.1,0.1-1.5,0.2c-0.4,0.1-0.7,0.3-0.9,0.6c-0.5,0.5-0.8,1-0.8,1.7c0,0.5,0.2,1,0.6,1.4c0.2,0.2,0.4,0.3,0.7,0.4
	s0.6,0.2,1,0.2c0.7,0,1.4-0.2,2.2-0.6c0.7-0.3,1.3-0.8,1.8-1.3v-1.8c-0.4-0.2-0.9-0.4-1.3-0.6C21.7,16,21.1,15.8,20.4,15.8z"/>
</svg>
